<?xml version="1.0" encoding="utf-8"?>
<svg viewBox="0 0 134.0 23.0" xmlns="http://www.w3.org/2000/svg">
<rect fill="transparent" width="100%" height="100%"/>
<text fill="#999999" font-size="1.8" font-family="Arial" x="1" y="4">Jan</text>
<text fill="#999999" font-size="1.8" font-family="Arial" x="11" y="4">Feb</text>
<text fill="#999999" font-size="1.8" font-family="Arial" x="21" y="4">Mar</text>
<text fill="#999999" font-size="1.8" font-family="Arial" x="33.5" y="4">Apr</text>
<text fill="#999999" font-size="1.8" font-family="Arial" x="43.5" y="4">May</text>
<text fill="#999999" font-size="1.8" font-family="Arial" x="56" y="4">Jun</text>
<text fill="#999999" font-size="1.8" font-family="Arial" x="66" y="4">Jul</text>
<text fill="#999999" font-size="1.8" font-family="Arial" x="76" y="4">Aug</text>
<text fill="#999999" font-size="1.8" font-family="Arial" x="88.5" y="4">Sep</text>
<text fill="#999999" font-size="1.8" font-family="Arial" x="98.5" y="4">Oct</text>
<text fill="#999999" font-size="1.8" font-family="Arial" x="108.5" y="4">Nov</text>
<text fill="#999999" font-size="1.8" font-family="Arial" x="121" y="4">Dec</text>
<rect fill="#ffb088" width="2" height="2" x="1" y="12.5" rx="0.4"><title>2026-01-01 8.1km (run)</title></rect>
<rect fill="#e0e0e0" width="2" height="2" x="1" y="15" rx="0.4"><title>2026-01-02</title></rect>
<rect fill="#ffb088" width="2" height="2" x="1" y="17.5" rx="0.4"><title>2026-01-03 10.1km (run)</title></rect>
<rect fill="#e0e0e0" width="2" height="2" x="1" y="20" rx="0.4"><title>2026-01-04</title></rect>
<rect fill="#e0e0e0" width="2" height="2" x="3.5" y="5" rx="0.4"><title>2026-01-05</title></rect>
<rect fill="#ffb088" width="2" height="2" x="3.5" y="7.5" rx="0.4"><title>2026-01-06 8.1km (run)</title></rect>
<rect fill="#ffb088" width="2" height="2" x="3.5" y="10" rx="0.4"><title>2026-01-07 8.1km (run)</title></rect>
<rect fill="#e0e0e0" width="2" height="2" x="3.5" y="12.5" rx="0.4"><title>2026-01-08</title></rect>
<rect fill="#e0e0e0" width="2" height="2" x="3.5" y="15" rx="0.4"><title>2026-01-09</title></rect>
<rect fill="#ffb088" width="2" height="2" x="3.5" y="17.5" rx="0.4"><title>2026-01-10 8.1km (run)</title></rect>
<rect fill="#e0e0e0" width="2" height="2" x="3.5" y="20" rx="0.4"><title>2026-01-11</title></rect>
<rect fill="#e0e0e0" width="2" height="2" x="6" y="5" rx="0.4"><title>2026-01-12</title></rect>
<rect fill="#ffb088" width="2" height="2" x="6" y="7.5" rx="0.4"><title>2026-01-13 8.1km (run)</title></rect>
<rect fill="#ffb088" width="2" height="2" x="6" y="10" rx="0.4"><title>2026-01-14 10.1km (run)</title></rect>
<rect fill="#e0e0e0" width="2" height="2" x="6" y="12.5" rx="0.4"><title>2026-01-15</title></rect>
<rect fill="#e0e0e0" width="2" height="2" x="6" y="15" rx="0.4"><title>2026-01-16</title></rect>
<rect fill="#e0e0e0" width="2" height="2" x="6" y="17.5" rx="0.4"><title>2026-01-17</title></rect>
<rect fill="#ffb088" width="2" height="2" x="6" y="20" rx="0.4"><title>2026-01-18 12.1km (run)</title></rect>
<rect fill="#e0e0e0" width="2" height="2" x="8.5" y="5" rx="0.4"><title>2026-01-19</title></rect>
<rect fill="#ffb088" width="2" height="2" x="8.5" y="7.5" rx="0.4"><title>2026-01-20 11.1km (run)</title></rect>
<rect fill="#e0e0e0" width="2" height="2" x="8.5" y="10" rx="0.4"><title>2026-01-21</title></rect>
<rect fill="#e0e0e0" width="2" height="2" x="8.5" y="12.5" rx="0.4"><title>2026-01-22</title></rect>
<rect fill="#e0e0e0" width="2" height="2" x="8.5" y="15" rx="0.4"><title>2026-01-23</title></rect>
<rect fill="#e0e0e0" width="2" height="2" x="8.5" y="17.5" rx="0.4"><title>2026-01-24</title></rect>
<rect fill="#e0e0e0" width="2" height="2" x="8.5" y="20" rx="0.4"><title>2026-01-25</title></rect>
<rect fill="#e0e0e0" width="2" height="2" x="11" y="5" rx="0.4"><title>2026-01-26</title></rect>
<rect fill="#e0e0e0" width="2" height="2" x="11" y="7.5" rx="0.4"><title>2026-01-27</title></rect>
<rect fill="#e0e0e0" width="2" height="2" x="11" y="10" rx="0.4"><title>2026-01-28</title></rect>
<rect fill="#e0e0e0" width="2" height="2" x="11" y="12.5" rx="0.4"><title>2026-01-29</title></rect>
<rect fill="#e0e0e0" width="2" height="2" x="11" y="15" rx="0.4"><title>2026-01-30</title></rect>
<rect fill="#e0e0e0" width="2" height="2" x="11" y="17.5" rx="0.4"><title>2026-01-31</title></rect>
<rect fill="#e0e0e0" width="2" height="2" x="11" y="20" rx="0.4"><title>2026-02-01</title></rect>
<rect fill="#e0e0e0" width="2" height="2" x="13.5" y="5" rx="0.4"><title>2026-02-02</title></rect>
<rect fill="#ffb088" width="2" height="2" x="13.5" y="7.5" rx="0.4"><title>2026-02-03 5.1km (run)</title></rect>
<rect fill="#e0e0e0" width="2" height="2" x="13.5" y="10" rx="0.4"><title>2026-02-04</title></rect>
<rect fill="#e0e0e0" width="2" height="2" x="13.5" y="12.5" rx="0.4"><title>2026-02-05</title></rect>
<rect fill="#e0e0e0" width="2" height="2" x="13.5" y="15" rx="0.4"><title>2026-02-06</title></rect>
<rect fill="#e0e0e0" width="2" height="2" x="13.5" y="17.5" rx="0.4"><title>2026-02-07</title></rect>
<rect fill="#e0e0e0" width="2" height="2" x="13.5" y="20" rx="0.4"><title>2026-02-08</title></rect>
<rect fill="#e0e0e0" width="2" height="2" x="16" y="5" rx="0.4"><title>2026-02-09</title></rect>
<rect fill="#e0e0e0" width="2" height="2" x="16" y="7.5" rx="0.4"><title>2026-02-10</title></rect>
<rect fill="#e0e0e0" width="2" height="2" x="16" y="10" rx="0.4"><title>2026-02-11</title></rect>
<rect fill="#e0e0e0" width="2" height="2" x="16" y="12.5" rx="0.4"><title>2026-02-12</title></rect>
<rect fill="#e0e0e0" width="2" height="2" x="16" y="15" rx="0.4"><title>2026-02-13</title></rect>
<rect fill="#e0e0e0" width="2" height="2" x="16" y="17.5" rx="0.4"><title>2026-02-14</title></rect>
<rect fill="#e0e0e0" width="2" height="2" x="16" y="20" rx="0.4"><title>2026-02-15</title></rect>
<rect fill="#e0e0e0" width="2" height="2" x="18.5" y="5" rx="0.4"><title>2026-02-16</title></rect>
<rect fill="#e0e0e0" width="2" height="2" x="18.5" y="7.5" rx="0.4"><title>2026-02-17</title></rect>
<rect fill="#e0e0e0" width="2" height="2" x="18.5" y="10" rx="0.4"><title>2026-02-18</title></rect>
<rect fill="#e0e0e0" width="2" height="2" x="18.5" y="12.5" rx="0.4"><title>2026-02-19</title></rect>
<rect fill="#e0e0e0" width="2" height="2" x="18.5" y="15" rx="0.4"><title>2026-02-20</title></rect>
<rect fill="#e0e0e0" width="2" height="2" x="18.5" y="17.5" rx="0.4"><title>2026-02-21</title></rect>
<rect fill="#e0e0e0" width="2" height="2" x="18.5" y="20" rx="0.4"><title>2026-02-22</title></rect>
<rect fill="#e0e0e0" width="2" height="2" x="21" y="5" rx="0.4"><title>2026-02-23</title></rect>
<rect fill="#e0e0e0" width="2" height="2" x="21" y="7.5" rx="0.4"><title>2026-02-24</title></rect>
<rect fill="#e0e0e0" width="2" height="2" x="21" y="10" rx="0.4"><title>2026-02-25</title></rect>
<rect fill="#e0e0e0" width="2" height="2" x="21" y="12.5" rx="0.4"><title>2026-02-26</title></rect>
<rect fill="#e0e0e0" width="2" height="2" x="21" y="15" rx="0.4"><title>2026-02-27</title></rect>
<rect fill="#e0e0e0" width="2" height="2" x="21" y="17.5" rx="0.4"><title>2026-02-28</title></rect>
<rect fill="#e0e0e0" width="2" height="2" x="21" y="20" rx="0.4"><title>2026-03-01</title></rect>
<rect fill="#e0e0e0" width="2" height="2" x="23.5" y="5" rx="0.4"><title>2026-03-02</title></rect>
<rect fill="#e0e0e0" width="2" height="2" x="23.5" y="7.5" rx="0.4"><title>2026-03-03</title></rect>
<rect fill="#e0e0e0" width="2" height="2" x="23.5" y="10" rx="0.4"><title>2026-03-04</title></rect>
<rect fill="#e0e0e0" width="2" height="2" x="23.5" y="12.5" rx="0.4"><title>2026-03-05</title></rect>
<rect fill="#e0e0e0" width="2" height="2" x="23.5" y="15" rx="0.4"><title>2026-03-06</title></rect>
<rect fill="#e0e0e0" width="2" height="2" x="23.5" y="17.5" rx="0.4"><title>2026-03-07</title></rect>
<rect fill="#e0e0e0" width="2" height="2" x="23.5" y="20" rx="0.4"><title>2026-03-08</title></rect>
<rect fill="#e0e0e0" width="2" height="2" x="26" y="5" rx="0.4"><title>2026-03-09</title></rect>
<rect fill="#e0e0e0" width="2" height="2" x="26" y="7.5" rx="0.4"><title>2026-03-10</title></rect>
<rect fill="#e0e0e0" width="2" height="2" x="26" y="10" rx="0.4"><title>2026-03-11</title></rect>
<rect fill="#e0e0e0" width="2" height="2" x="26" y="12.5" rx="0.4"><title>2026-03-12</title></rect>
<rect fill="#e0e0e0" width="2" height="2" x="26" y="15" rx="0.4"><title>2026-03-13</title></rect>
<rect fill="#e0e0e0" width="2" height="2" x="26" y="17.5" rx="0.4"><title>2026-03-14</title></rect>
<rect fill="#e0e0e0" width="2" height="2" x="26" y="20" rx="0.4"><title>2026-03-15</title></rect>
<rect fill="#e0e0e0" width="2" height="2" x="28.5" y="5" rx="0.4"><title>2026-03-16</title></rect>
<rect fill="#e0e0e0" width="2" height="2" x="28.5" y="7.5" rx="0.4"><title>2026-03-17</title></rect>
<rect fill="#e0e0e0" width="2" height="2" x="28.5" y="10" rx="0.4"><title>2026-03-18</title></rect>
<rect fill="#e0e0e0" width="2" height="2" x="28.5" y="12.5" rx="0.4"><title>2026-03-19</title></rect>
<rect fill="#e0e0e0" width="2" height="2" x="28.5" y="15" rx="0.4"><title>2026-03-20</title></rect>
<rect fill="#e0e0e0" width="2" height="2" x="28.5" y="17.5" rx="0.4"><title>2026-03-21</title></rect>
<rect fill="#e0e0e0" width="2" height="2" x="28.5" y="20" rx="0.4"><title>2026-03-22</title></rect>
<rect fill="#e0e0e0" width="2" height="2" x="31" y="5" rx="0.4"><title>2026-03-23</title></rect>
<rect fill="#e0e0e0" width="2" height="2" x="31" y="7.5" rx="0.4"><title>2026-03-24</title></rect>
<rect fill="#e0e0e0" width="2" height="2" x="31" y="10" rx="0.4"><title>2026-03-25</title></rect>
<rect fill="#e0e0e0" width="2" height="2" x="31" y="12.5" rx="0.4"><title>2026-03-26</title></rect>
<rect fill="#e0e0e0" width="2" height="2" x="31" y="15" rx="0.4"><title>2026-03-27</title></rect>
<rect fill="#e0e0e0" width="2" height="2" x="31" y="17.5" rx="0.4"><title>2026-03-28</title></rect>
<rect fill="#e0e0e0" width="2" height="2" x="31" y="20" rx="0.4"><title>2026-03-29</title></rect>
<rect fill="#e0e0e0" width="2" height="2" x="33.5" y="5" rx="0.4"><title>2026-03-30</title></rect>
<rect fill="#e0e0e0" width="2" height="2" x="33.5" y="7.5" rx="0.4"><title>2026-03-31</title></rect>
<rect fill="#e0e0e0" width="2" height="2" x="33.5" y="10" rx="0.4"><title>2026-04-01</title></rect>
<rect fill="#e0e0e0" width="2" height="2" x="33.5" y="12.5" rx="0.4"><title>2026-04-02</title></rect>
<rect fill="#e0e0e0" width="2" height="2" x="33.5" y="15" rx="0.4"><title>2026-04-03</title></rect>
<rect fill="#e0e0e0" width="2" height="2" x="33.5" y="17.5" rx="0.4"><title>2026-04-04</title></rect>
<rect fill="#e0e0e0" width="2" height="2" x="33.5" y="20" rx="0.4"><title>2026-04-05</title></rect>
<rect fill="#e0e0e0" width="2" height="2" x="36" y="5" rx="0.4"><title>2026-04-06</title></rect>
<rect fill="#e0e0e0" width="2" height="2" x="36" y="7.5" rx="0.4"><title>2026-04-07</title></rect>
<rect fill="#e0e0e0" width="2" height="2" x="36" y="10" rx="0.4"><title>2026-04-08</title></rect>
<rect fill="#e0e0e0" width="2" height="2" x="36" y="12.5" rx="0.4"><title>2026-04-09</title></rect>
<rect fill="#e0e0e0" width="2" height="2" x="36" y="15" rx="0.4"><title>2026-04-10</title></rect>
<rect fill="#e0e0e0" width="2" height="2" x="36" y="17.5" rx="0.4"><title>2026-04-11</title></rect>
<rect fill="#e0e0e0" width="2" height="2" x="36" y="20" rx="0.4"><title>2026-04-12</title></rect>
<rect fill="#e0e0e0" width="2" height="2" x="38.5" y="5" rx="0.4"><title>2026-04-13</title></rect>
<rect fill="#e0e0e0" width="2" height="2" x="38.5" y="7.5" rx="0.4"><title>2026-04-14</title></rect>
<rect fill="#e0e0e0" width="2" height="2" x="38.5" y="10" rx="0.4"><title>2026-04-15</title></rect>
<rect fill="#e0e0e0" width="2" height="2" x="38.5" y="12.5" rx="0.4"><title>2026-04-16</title></rect>
<rect fill="#e0e0e0" width="2" height="2" x="38.5" y="15" rx="0.4"><title>2026-04-17</title></rect>
<rect fill="#e0e0e0" width="2" height="2" x="38.5" y="17.5" rx="0.4"><title>2026-04-18</title></rect>
<rect fill="#e0e0e0" width="2" height="2" x="38.5" y="20" rx="0.4"><title>2026-04-19</title></rect>
<rect fill="#e0e0e0" width="2" height="2" x="41" y="5" rx="0.4"><title>2026-04-20</title></rect>
<rect fill="#e0e0e0" width="2" height="2" x="41" y="7.5" rx="0.4"><title>2026-04-21</title></rect>
<rect fill="#e0e0e0" width="2" height="2" x="41" y="10" rx="0.4"><title>2026-04-22</title></rect>
<rect fill="#e0e0e0" width="2" height="2" x="41" y="12.5" rx="0.4"><title>2026-04-23</title></rect>
<rect fill="#e0e0e0" width="2" height="2" x="41" y="15" rx="0.4"><title>2026-04-24</title></rect>
<rect fill="#e0e0e0" width="2" height="2" x="41" y="17.5" rx="0.4"><title>2026-04-25</title></rect>
<rect fill="#e0e0e0" width="2" height="2" x="41" y="20" rx="0.4"><title>2026-04-26</title></rect>
<rect fill="#e0e0e0" width="2" height="2" x="43.5" y="5" rx="0.4"><title>2026-04-27</title></rect>
<rect fill="#e0e0e0" width="2" height="2" x="43.5" y="7.5" rx="0.4"><title>2026-04-28</title></rect>
<rect fill="#e0e0e0" width="2" height="2" x="43.5" y="10" rx="0.4"><title>2026-04-29</title></rect>
<rect fill="#e0e0e0" width="2" height="2" x="43.5" y="12.5" rx="0.4"><title>2026-04-30</title></rect>
<rect fill="#e0e0e0" width="2" height="2" x="43.5" y="15" rx="0.4"><title>2026-05-01</title></rect>
<rect fill="#e0e0e0" width="2" height="2" x="43.5" y="17.5" rx="0.4"><title>2026-05-02</title></rect>
<rect fill="#e0e0e0" width="2" height="2" x="43.5" y="20" rx="0.4"><title>2026-05-03</title></rect>
<rect fill="#e0e0e0" width="2" height="2" x="46" y="5" rx="0.4"><title>2026-05-04</title></rect>
<rect fill="#e0e0e0" width="2" height="2" x="46" y="7.5" rx="0.4"><title>2026-05-05</title></rect>
<rect fill="#e0e0e0" width="2" height="2" x="46" y="10" rx="0.4"><title>2026-05-06</title></rect>
<rect fill="#e0e0e0" width="2" height="2" x="46" y="12.5" rx="0.4"><title>2026-05-07</title></rect>
<rect fill="#e0e0e0" width="2" height="2" x="46" y="15" rx="0.4"><title>2026-05-08</title></rect>
<rect fill="#e0e0e0" width="2" height="2" x="46" y="17.5" rx="0.4"><title>2026-05-09</title></rect>
<rect fill="#e0e0e0" width="2" height="2" x="46" y="20" rx="0.4"><title>2026-05-10</title></rect>
<rect fill="#e0e0e0" width="2" height="2" x="48.5" y="5" rx="0.4"><title>2026-05-11</title></rect>
<rect fill="#e0e0e0" width="2" height="2" x="48.5" y="7.5" rx="0.4"><title>2026-05-12</title></rect>
<rect fill="#e0e0e0" width="2" height="2" x="48.5" y="10" rx="0.4"><title>2026-05-13</title></rect>
<rect fill="#e0e0e0" width="2" height="2" x="48.5" y="12.5" rx="0.4"><title>2026-05-14</title></rect>
<rect fill="#e0e0e0" width="2" height="2" x="48.5" y="15" rx="0.4"><title>2026-05-15</title></rect>
<rect fill="#e0e0e0" width="2" height="2" x="48.5" y="17.5" rx="0.4"><title>2026-05-16</title></rect>
<rect fill="#e0e0e0" width="2" height="2" x="48.5" y="20" rx="0.4"><title>2026-05-17</title></rect>
<rect fill="#e0e0e0" width="2" height="2" x="51" y="5" rx="0.4"><title>2026-05-18</title></rect>
<rect fill="#e0e0e0" width="2" height="2" x="51" y="7.5" rx="0.4"><title>2026-05-19</title></rect>
<rect fill="#e0e0e0" width="2" height="2" x="51" y="10" rx="0.4"><title>2026-05-20</title></rect>
<rect fill="#e0e0e0" width="2" height="2" x="51" y="12.5" rx="0.4"><title>2026-05-21</title></rect>
<rect fill="#e0e0e0" width="2" height="2" x="51" y="15" rx="0.4"><title>2026-05-22</title></rect>
<rect fill="#e0e0e0" width="2" height="2" x="51" y="17.5" rx="0.4"><title>2026-05-23</title></rect>
<rect fill="#e0e0e0" width="2" height="2" x="51" y="20" rx="0.4"><title>2026-05-24</title></rect>
<rect fill="#e0e0e0" width="2" height="2" x="53.5" y="5" rx="0.4"><title>2026-05-25</title></rect>
<rect fill="#e0e0e0" width="2" height="2" x="53.5" y="7.5" rx="0.4"><title>2026-05-26</title></rect>
<rect fill="#e0e0e0" width="2" height="2" x="53.5" y="10" rx="0.4"><title>2026-05-27</title></rect>
<rect fill="#e0e0e0" width="2" height="2" x="53.5" y="12.5" rx="0.4"><title>2026-05-28</title></rect>
<rect fill="#e0e0e0" width="2" height="2" x="53.5" y="15" rx="0.4"><title>2026-05-29</title></rect>
<rect fill="#e0e0e0" width="2" height="2" x="53.5" y="17.5" rx="0.4"><title>2026-05-30</title></rect>
<rect fill="#e0e0e0" width="2" height="2" x="53.5" y="20" rx="0.4"><title>2026-05-31</title></rect>
<rect fill="#e0e0e0" width="2" height="2" x="56" y="5" rx="0.4"><title>2026-06-01</title></rect>
<rect fill="#e0e0e0" width="2" height="2" x="56" y="7.5" rx="0.4"><title>2026-06-02</title></rect>
<rect fill="#e0e0e0" width="2" height="2" x="56" y="10" rx="0.4"><title>2026-06-03</title></rect>
<rect fill="#e0e0e0" width="2" height="2" x="56" y="12.5" rx="0.4"><title>2026-06-04</title></rect>
<rect fill="#e0e0e0" width="2" height="2" x="56" y="15" rx="0.4"><title>2026-06-05</title></rect>
<rect fill="#e0e0e0" width="2" height="2" x="56" y="17.5" rx="0.4"><title>2026-06-06</title></rect>
<rect fill="#e0e0e0" width="2" height="2" x="56" y="20" rx="0.4"><title>2026-06-07</title></rect>
<rect fill="#e0e0e0" width="2" height="2" x="58.5" y="5" rx="0.4"><title>2026-06-08</title></rect>
<rect fill="#e0e0e0" width="2" height="2" x="58.5" y="7.5" rx="0.4"><title>2026-06-09</title></rect>
<rect fill="#e0e0e0" width="2" height="2" x="58.5" y="10" rx="0.4"><title>2026-06-10</title></rect>
<rect fill="#e0e0e0" width="2" height="2" x="58.5" y="12.5" rx="0.4"><title>2026-06-11</title></rect>
<rect fill="#e0e0e0" width="2" height="2" x="58.5" y="15" rx="0.4"><title>2026-06-12</title></rect>
<rect fill="#e0e0e0" width="2" height="2" x="58.5" y="17.5" rx="0.4"><title>2026-06-13</title></rect>
<rect fill="#e0e0e0" width="2" height="2" x="58.5" y="20" rx="0.4"><title>2026-06-14</title></rect>
<rect fill="#e0e0e0" width="2" height="2" x="61" y="5" rx="0.4"><title>2026-06-15</title></rect>
<rect fill="#e0e0e0" width="2" height="2" x="61" y="7.5" rx="0.4"><title>2026-06-16</title></rect>
<rect fill="#e0e0e0" width="2" height="2" x="61" y="10" rx="0.4"><title>2026-06-17</title></rect>
<rect fill="#e0e0e0" width="2" height="2" x="61" y="12.5" rx="0.4"><title>2026-06-18</title></rect>
<rect fill="#e0e0e0" width="2" height="2" x="61" y="15" rx="0.4"><title>2026-06-19</title></rect>
<rect fill="#e0e0e0" width="2" height="2" x="61" y="17.5" rx="0.4"><title>2026-06-20</title></rect>
<rect fill="#e0e0e0" width="2" height="2" x="61" y="20" rx="0.4"><title>2026-06-21</title></rect>
<rect fill="#e0e0e0" width="2" height="2" x="63.5" y="5" rx="0.4"><title>2026-06-22</title></rect>
<rect fill="#e0e0e0" width="2" height="2" x="63.5" y="7.5" rx="0.4"><title>2026-06-23</title></rect>
<rect fill="#e0e0e0" width="2" height="2" x="63.5" y="10" rx="0.4"><title>2026-06-24</title></rect>
<rect fill="#e0e0e0" width="2" height="2" x="63.5" y="12.5" rx="0.4"><title>2026-06-25</title></rect>
<rect fill="#e0e0e0" width="2" height="2" x="63.5" y="15" rx="0.4"><title>2026-06-26</title></rect>
<rect fill="#e0e0e0" width="2" height="2" x="63.5" y="17.5" rx="0.4"><title>2026-06-27</title></rect>
<rect fill="#e0e0e0" width="2" height="2" x="63.5" y="20" rx="0.4"><title>2026-06-28</title></rect>
<rect fill="#e0e0e0" width="2" height="2" x="66" y="5" rx="0.4"><title>2026-06-29</title></rect>
<rect fill="#e0e0e0" width="2" height="2" x="66" y="7.5" rx="0.4"><title>2026-06-30</title></rect>
<rect fill="#e0e0e0" width="2" height="2" x="66" y="10" rx="0.4"><title>2026-07-01</title></rect>
<rect fill="#e0e0e0" width="2" height="2" x="66" y="12.5" rx="0.4"><title>2026-07-02</title></rect>
<rect fill="#e0e0e0" width="2" height="2" x="66" y="15" rx="0.4"><title>2026-07-03</title></rect>
<rect fill="#e0e0e0" width="2" height="2" x="66" y="17.5" rx="0.4"><title>2026-07-04</title></rect>
<rect fill="#e0e0e0" width="2" height="2" x="66" y="20" rx="0.4"><title>2026-07-05</title></rect>
<rect fill="#e0e0e0" width="2" height="2" x="68.5" y="5" rx="0.4"><title>2026-07-06</title></rect>
<rect fill="#e0e0e0" width="2" height="2" x="68.5" y="7.5" rx="0.4"><title>2026-07-07</title></rect>
<rect fill="#e0e0e0" width="2" height="2" x="68.5" y="10" rx="0.4"><title>2026-07-08</title></rect>
<rect fill="#e0e0e0" width="2" height="2" x="68.5" y="12.5" rx="0.4"><title>2026-07-09</title></rect>
<rect fill="#e0e0e0" width="2" height="2" x="68.5" y="15" rx="0.4"><title>2026-07-10</title></rect>
<rect fill="#e0e0e0" width="2" height="2" x="68.5" y="17.5" rx="0.4"><title>2026-07-11</title></rect>
<rect fill="#e0e0e0" width="2" height="2" x="68.5" y="20" rx="0.4"><title>2026-07-12</title></rect>
<rect fill="#e0e0e0" width="2" height="2" x="71" y="5" rx="0.4"><title>2026-07-13</title></rect>
<rect fill="#e0e0e0" width="2" height="2" x="71" y="7.5" rx="0.4"><title>2026-07-14</title></rect>
<rect fill="#e0e0e0" width="2" height="2" x="71" y="10" rx="0.4"><title>2026-07-15</title></rect>
<rect fill="#e0e0e0" width="2" height="2" x="71" y="12.5" rx="0.4"><title>2026-07-16</title></rect>
<rect fill="#e0e0e0" width="2" height="2" x="71" y="15" rx="0.4"><title>2026-07-17</title></rect>
<rect fill="#e0e0e0" width="2" height="2" x="71" y="17.5" rx="0.4"><title>2026-07-18</title></rect>
<rect fill="#e0e0e0" width="2" height="2" x="71" y="20" rx="0.4"><title>2026-07-19</title></rect>
<rect fill="#e0e0e0" width="2" height="2" x="73.5" y="5" rx="0.4"><title>2026-07-20</title></rect>
<rect fill="#e0e0e0" width="2" height="2" x="73.5" y="7.5" rx="0.4"><title>2026-07-21</title></rect>
<rect fill="#e0e0e0" width="2" height="2" x="73.5" y="10" rx="0.4"><title>2026-07-22</title></rect>
<rect fill="#e0e0e0" width="2" height="2" x="73.5" y="12.5" rx="0.4"><title>2026-07-23</title></rect>
<rect fill="#e0e0e0" width="2" height="2" x="73.5" y="15" rx="0.4"><title>2026-07-24</title></rect>
<rect fill="#e0e0e0" width="2" height="2" x="73.5" y="17.5" rx="0.4"><title>2026-07-25</title></rect>
<rect fill="#e0e0e0" width="2" height="2" x="73.5" y="20" rx="0.4"><title>2026-07-26</title></rect>
<rect fill="#e0e0e0" width="2" height="2" x="76" y="5" rx="0.4"><title>2026-07-27</title></rect>
<rect fill="#e0e0e0" width="2" height="2" x="76" y="7.5" rx="0.4"><title>2026-07-28</title></rect>
<rect fill="#e0e0e0" width="2" height="2" x="76" y="10" rx="0.4"><title>2026-07-29</title></rect>
<rect fill="#e0e0e0" width="2" height="2" x="76" y="12.5" rx="0.4"><title>2026-07-30</title></rect>
<rect fill="#e0e0e0" width="2" height="2" x="76" y="15" rx="0.4"><title>2026-07-31</title></rect>
<rect fill="#e0e0e0" width="2" height="2" x="76" y="17.5" rx="0.4"><title>2026-08-01</title></rect>
<rect fill="#e0e0e0" width="2" height="2" x="76" y="20" rx="0.4"><title>2026-08-02</title></rect>
<rect fill="#e0e0e0" width="2" height="2" x="78.5" y="5" rx="0.4"><title>2026-08-03</title></rect>
<rect fill="#e0e0e0" width="2" height="2" x="78.5" y="7.5" rx="0.4"><title>2026-08-04</title></rect>
<rect fill="#e0e0e0" width="2" height="2" x="78.5" y="10" rx="0.4"><title>2026-08-05</title></rect>
<rect fill="#e0e0e0" width="2" height="2" x="78.5" y="12.5" rx="0.4"><title>2026-08-06</title></rect>
<rect fill="#e0e0e0" width="2" height="2" x="78.5" y="15" rx="0.4"><title>2026-08-07</title></rect>
<rect fill="#e0e0e0" width="2" height="2" x="78.5" y="17.5" rx="0.4"><title>2026-08-08</title></rect>
<rect fill="#e0e0e0" width="2" height="2" x="78.5" y="20" rx="0.4"><title>2026-08-09</title></rect>
<rect fill="#e0e0e0" width="2" height="2" x="81" y="5" rx="0.4"><title>2026-08-10</title></rect>
<rect fill="#e0e0e0" width="2" height="2" x="81" y="7.5" rx="0.4"><title>2026-08-11</title></rect>
<rect fill="#e0e0e0" width="2" height="2" x="81" y="10" rx="0.4"><title>2026-08-12</title></rect>
<rect fill="#e0e0e0" width="2" height="2" x="81" y="12.5" rx="0.4"><title>2026-08-13</title></rect>
<rect fill="#e0e0e0" width="2" height="2" x="81" y="15" rx="0.4"><title>2026-08-14</title></rect>
<rect fill="#e0e0e0" width="2" height="2" x="81" y="17.5" rx="0.4"><title>2026-08-15</title></rect>
<rect fill="#e0e0e0" width="2" height="2" x="81" y="20" rx="0.4"><title>2026-08-16</title></rect>
<rect fill="#e0e0e0" width="2" height="2" x="83.5" y="5" rx="0.4"><title>2026-08-17</title></rect>
<rect fill="#e0e0e0" width="2" height="2" x="83.5" y="7.5" rx="0.4"><title>2026-08-18</title></rect>
<rect fill="#e0e0e0" width="2" height="2" x="83.5" y="10" rx="0.4"><title>2026-08-19</title></rect>
<rect fill="#e0e0e0" width="2" height="2" x="83.5" y="12.5" rx="0.4"><title>2026-08-20</title></rect>
<rect fill="#e0e0e0" width="2" height="2" x="83.5" y="15" rx="0.4"><title>2026-08-21</title></rect>
<rect fill="#e0e0e0" width="2" height="2" x="83.5" y="17.5" rx="0.4"><title>2026-08-22</title></rect>
<rect fill="#e0e0e0" width="2" height="2" x="83.5" y="20" rx="0.4"><title>2026-08-23</title></rect>
<rect fill="#e0e0e0" width="2" height="2" x="86" y="5" rx="0.4"><title>2026-08-24</title></rect>
<rect fill="#e0e0e0" width="2" height="2" x="86" y="7.5" rx="0.4"><title>2026-08-25</title></rect>
<rect fill="#e0e0e0" width="2" height="2" x="86" y="10" rx="0.4"><title>2026-08-26</title></rect>
<rect fill="#e0e0e0" width="2" height="2" x="86" y="12.5" rx="0.4"><title>2026-08-27</title></rect>
<rect fill="#e0e0e0" width="2" height="2" x="86" y="15" rx="0.4"><title>2026-08-28</title></rect>
<rect fill="#e0e0e0" width="2" height="2" x="86" y="17.5" rx="0.4"><title>2026-08-29</title></rect>
<rect fill="#e0e0e0" width="2" height="2" x="86" y="20" rx="0.4"><title>2026-08-30</title></rect>
<rect fill="#e0e0e0" width="2" height="2" x="88.5" y="5" rx="0.4"><title>2026-08-31</title></rect>
<rect fill="#e0e0e0" width="2" height="2" x="88.5" y="7.5" rx="0.4"><title>2026-09-01</title></rect>
<rect fill="#e0e0e0" width="2" height="2" x="88.5" y="10" rx="0.4"><title>2026-09-02</title></rect>
<rect fill="#e0e0e0" width="2" height="2" x="88.5" y="12.5" rx="0.4"><title>2026-09-03</title></rect>
<rect fill="#e0e0e0" width="2" height="2" x="88.5" y="15" rx="0.4"><title>2026-09-04</title></rect>
<rect fill="#e0e0e0" width="2" height="2" x="88.5" y="17.5" rx="0.4"><title>2026-09-05</title></rect>
<rect fill="#e0e0e0" width="2" height="2" x="88.5" y="20" rx="0.4"><title>2026-09-06</title></rect>
<rect fill="#e0e0e0" width="2" height="2" x="91" y="5" rx="0.4"><title>2026-09-07</title></rect>
<rect fill="#e0e0e0" width="2" height="2" x="91" y="7.5" rx="0.4"><title>2026-09-08</title></rect>
<rect fill="#e0e0e0" width="2" height="2" x="91" y="10" rx="0.4"><title>2026-09-09</title></rect>
<rect fill="#e0e0e0" width="2" height="2" x="91" y="12.5" rx="0.4"><title>2026-09-10</title></rect>
<rect fill="#e0e0e0" width="2" height="2" x="91" y="15" rx="0.4"><title>2026-09-11</title></rect>
<rect fill="#e0e0e0" width="2" height="2" x="91" y="17.5" rx="0.4"><title>2026-09-12</title></rect>
<rect fill="#e0e0e0" width="2" height="2" x="91" y="20" rx="0.4"><title>2026-09-13</title></rect>
<rect fill="#e0e0e0" width="2" height="2" x="93.5" y="5" rx="0.4"><title>2026-09-14</title></rect>
<rect fill="#e0e0e0" width="2" height="2" x="93.5" y="7.5" rx="0.4"><title>2026-09-15</title></rect>
<rect fill="#e0e0e0" width="2" height="2" x="93.5" y="10" rx="0.4"><title>2026-09-16</title></rect>
<rect fill="#e0e0e0" width="2" height="2" x="93.5" y="12.5" rx="0.4"><title>2026-09-17</title></rect>
<rect fill="#e0e0e0" width="2" height="2" x="93.5" y="15" rx="0.4"><title>2026-09-18</title></rect>
<rect fill="#e0e0e0" width="2" height="2" x="93.5" y="17.5" rx="0.4"><title>2026-09-19</title></rect>
<rect fill="#e0e0e0" width="2" height="2" x="93.5" y="20" rx="0.4"><title>2026-09-20</title></rect>
<rect fill="#e0e0e0" width="2" height="2" x="96" y="5" rx="0.4"><title>2026-09-21</title></rect>
<rect fill="#e0e0e0" width="2" height="2" x="96" y="7.5" rx="0.4"><title>2026-09-22</title></rect>
<rect fill="#e0e0e0" width="2" height="2" x="96" y="10" rx="0.4"><title>2026-09-23</title></rect>
<rect fill="#e0e0e0" width="2" height="2" x="96" y="12.5" rx="0.4"><title>2026-09-24</title></rect>
<rect fill="#e0e0e0" width="2" height="2" x="96" y="15" rx="0.4"><title>2026-09-25</title></rect>
<rect fill="#e0e0e0" width="2" height="2" x="96" y="17.5" rx="0.4"><title>2026-09-26</title></rect>
<rect fill="#e0e0e0" width="2" height="2" x="96" y="20" rx="0.4"><title>2026-09-27</title></rect>
<rect fill="#e0e0e0" width="2" height="2" x="98.5" y="5" rx="0.4"><title>2026-09-28</title></rect>
<rect fill="#e0e0e0" width="2" height="2" x="98.5" y="7.5" rx="0.4"><title>2026-09-29</title></rect>
<rect fill="#e0e0e0" width="2" height="2" x="98.5" y="10" rx="0.4"><title>2026-09-30</title></rect>
<rect fill="#e0e0e0" width="2" height="2" x="98.5" y="12.5" rx="0.4"><title>2026-10-01</title></rect>
<rect fill="#e0e0e0" width="2" height="2" x="98.5" y="15" rx="0.4"><title>2026-10-02</title></rect>
<rect fill="#e0e0e0" width="2" height="2" x="98.5" y="17.5" rx="0.4"><title>2026-10-03</title></rect>
<rect fill="#e0e0e0" width="2" height="2" x="98.5" y="20" rx="0.4"><title>2026-10-04</title></rect>
<rect fill="#e0e0e0" width="2" height="2" x="101" y="5" rx="0.4"><title>2026-10-05</title></rect>
<rect fill="#e0e0e0" width="2" height="2" x="101" y="7.5" rx="0.4"><title>2026-10-06</title></rect>
<rect fill="#e0e0e0" width="2" height="2" x="101" y="10" rx="0.4"><title>2026-10-07</title></rect>
<rect fill="#e0e0e0" width="2" height="2" x="101" y="12.5" rx="0.4"><title>2026-10-08</title></rect>
<rect fill="#e0e0e0" width="2" height="2" x="101" y="15" rx="0.4"><title>2026-10-09</title></rect>
<rect fill="#e0e0e0" width="2" height="2" x="101" y="17.5" rx="0.4"><title>2026-10-10</title></rect>
<rect fill="#e0e0e0" width="2" height="2" x="101" y="20" rx="0.4"><title>2026-10-11</title></rect>
<rect fill="#e0e0e0" width="2" height="2" x="103.5" y="5" rx="0.4"><title>2026-10-12</title></rect>
<rect fill="#e0e0e0" width="2" height="2" x="103.5" y="7.5" rx="0.4"><title>2026-10-13</title></rect>
<rect fill="#e0e0e0" width="2" height="2" x="103.5" y="10" rx="0.4"><title>2026-10-14</title></rect>
<rect fill="#e0e0e0" width="2" height="2" x="103.5" y="12.5" rx="0.4"><title>2026-10-15</title></rect>
<rect fill="#e0e0e0" width="2" height="2" x="103.5" y="15" rx="0.4"><title>2026-10-16</title></rect>
<rect fill="#e0e0e0" width="2" height="2" x="103.5" y="17.5" rx="0.4"><title>2026-10-17</title></rect>
<rect fill="#e0e0e0" width="2" height="2" x="103.5" y="20" rx="0.4"><title>2026-10-18</title></rect>
<rect fill="#e0e0e0" width="2" height="2" x="106" y="5" rx="0.4"><title>2026-10-19</title></rect>
<rect fill="#e0e0e0" width="2" height="2" x="106" y="7.5" rx="0.4"><title>2026-10-20</title></rect>
<rect fill="#e0e0e0" width="2" height="2" x="106" y="10" rx="0.4"><title>2026-10-21</title></rect>
<rect fill="#e0e0e0" width="2" height="2" x="106" y="12.5" rx="0.4"><title>2026-10-22</title></rect>
<rect fill="#e0e0e0" width="2" height="2" x="106" y="15" rx="0.4"><title>2026-10-23</title></rect>
<rect fill="#e0e0e0" width="2" height="2" x="106" y="17.5" rx="0.4"><title>2026-10-24</title></rect>
<rect fill="#e0e0e0" width="2" height="2" x="106" y="20" rx="0.4"><title>2026-10-25</title></rect>
<rect fill="#e0e0e0" width="2" height="2" x="108.5" y="5" rx="0.4"><title>2026-10-26</title></rect>
<rect fill="#e0e0e0" width="2" height="2" x="108.5" y="7.5" rx="0.4"><title>2026-10-27</title></rect>
<rect fill="#e0e0e0" width="2" height="2" x="108.5" y="10" rx="0.4"><title>2026-10-28</title></rect>
<rect fill="#e0e0e0" width="2" height="2" x="108.5" y="12.5" rx="0.4"><title>2026-10-29</title></rect>
<rect fill="#e0e0e0" width="2" height="2" x="108.5" y="15" rx="0.4"><title>2026-10-30</title></rect>
<rect fill="#e0e0e0" width="2" height="2" x="108.5" y="17.5" rx="0.4"><title>2026-10-31</title></rect>
<rect fill="#e0e0e0" width="2" height="2" x="108.5" y="20" rx="0.4"><title>2026-11-01</title></rect>
<rect fill="#e0e0e0" width="2" height="2" x="111" y="5" rx="0.4"><title>2026-11-02</title></rect>
<rect fill="#e0e0e0" width="2" height="2" x="111" y="7.5" rx="0.4"><title>2026-11-03</title></rect>
<rect fill="#e0e0e0" width="2" height="2" x="111" y="10" rx="0.4"><title>2026-11-04</title></rect>
<rect fill="#e0e0e0" width="2" height="2" x="111" y="12.5" rx="0.4"><title>2026-11-05</title></rect>
<rect fill="#e0e0e0" width="2" height="2" x="111" y="15" rx="0.4"><title>2026-11-06</title></rect>
<rect fill="#e0e0e0" width="2" height="2" x="111" y="17.5" rx="0.4"><title>2026-11-07</title></rect>
<rect fill="#e0e0e0" width="2" height="2" x="111" y="20" rx="0.4"><title>2026-11-08</title></rect>
<rect fill="#e0e0e0" width="2" height="2" x="113.5" y="5" rx="0.4"><title>2026-11-09</title></rect>
<rect fill="#e0e0e0" width="2" height="2" x="113.5" y="7.5" rx="0.4"><title>2026-11-10</title></rect>
<rect fill="#e0e0e0" width="2" height="2" x="113.5" y="10" rx="0.4"><title>2026-11-11</title></rect>
<rect fill="#e0e0e0" width="2" height="2" x="113.5" y="12.5" rx="0.4"><title>2026-11-12</title></rect>
<rect fill="#e0e0e0" width="2" height="2" x="113.5" y="15" rx="0.4"><title>2026-11-13</title></rect>
<rect fill="#e0e0e0" width="2" height="2" x="113.5" y="17.5" rx="0.4"><title>2026-11-14</title></rect>
<rect fill="#e0e0e0" width="2" height="2" x="113.5" y="20" rx="0.4"><title>2026-11-15</title></rect>
<rect fill="#e0e0e0" width="2" height="2" x="116" y="5" rx="0.4"><title>2026-11-16</title></rect>
<rect fill="#e0e0e0" width="2" height="2" x="116" y="7.5" rx="0.4"><title>2026-11-17</title></rect>
<rect fill="#e0e0e0" width="2" height="2" x="116" y="10" rx="0.4"><title>2026-11-18</title></rect>
<rect fill="#e0e0e0" width="2" height="2" x="116" y="12.5" rx="0.4"><title>2026-11-19</title></rect>
<rect fill="#e0e0e0" width="2" height="2" x="116" y="15" rx="0.4"><title>2026-11-20</title></rect>
<rect fill="#e0e0e0" width="2" height="2" x="116" y="17.5" rx="0.4"><title>2026-11-21</title></rect>
<rect fill="#e0e0e0" width="2" height="2" x="116" y="20" rx="0.4"><title>2026-11-22</title></rect>
<rect fill="#e0e0e0" width="2" height="2" x="118.5" y="5" rx="0.4"><title>2026-11-23</title></rect>
<rect fill="#e0e0e0" width="2" height="2" x="118.5" y="7.5" rx="0.4"><title>2026-11-24</title></rect>
<rect fill="#e0e0e0" width="2" height="2" x="118.5" y="10" rx="0.4"><title>2026-11-25</title></rect>
<rect fill="#e0e0e0" width="2" height="2" x="118.5" y="12.5" rx="0.4"><title>2026-11-26</title></rect>
<rect fill="#e0e0e0" width="2" height="2" x="118.5" y="15" rx="0.4"><title>2026-11-27</title></rect>
<rect fill="#e0e0e0" width="2" height="2" x="118.5" y="17.5" rx="0.4"><title>2026-11-28</title></rect>
<rect fill="#e0e0e0" width="2" height="2" x="118.5" y="20" rx="0.4"><title>2026-11-29</title></rect>
<rect fill="#e0e0e0" width="2" height="2" x="121" y="5" rx="0.4"><title>2026-11-30</title></rect>
<rect fill="#e0e0e0" width="2" height="2" x="121" y="7.5" rx="0.4"><title>2026-12-01</title></rect>
<rect fill="#e0e0e0" width="2" height="2" x="121" y="10" rx="0.4"><title>2026-12-02</title></rect>
<rect fill="#e0e0e0" width="2" height="2" x="121" y="12.5" rx="0.4"><title>2026-12-03</title></rect>
<rect fill="#e0e0e0" width="2" height="2" x="121" y="15" rx="0.4"><title>2026-12-04</title></rect>
<rect fill="#e0e0e0" width="2" height="2" x="121" y="17.5" rx="0.4"><title>2026-12-05</title></rect>
<rect fill="#e0e0e0" width="2" height="2" x="121" y="20" rx="0.4"><title>2026-12-06</title></rect>
<rect fill="#e0e0e0" width="2" height="2" x="123.5" y="5" rx="0.4"><title>2026-12-07</title></rect>
<rect fill="#e0e0e0" width="2" height="2" x="123.5" y="7.5" rx="0.4"><title>2026-12-08</title></rect>
<rect fill="#e0e0e0" width="2" height="2" x="123.5" y="10" rx="0.4"><title>2026-12-09</title></rect>
<rect fill="#e0e0e0" width="2" height="2" x="123.5" y="12.5" rx="0.4"><title>2026-12-10</title></rect>
<rect fill="#e0e0e0" width="2" height="2" x="123.5" y="15" rx="0.4"><title>2026-12-11</title></rect>
<rect fill="#e0e0e0" width="2" height="2" x="123.5" y="17.5" rx="0.4"><title>2026-12-12</title></rect>
<rect fill="#e0e0e0" width="2" height="2" x="123.5" y="20" rx="0.4"><title>2026-12-13</title></rect>
<rect fill="#e0e0e0" width="2" height="2" x="126" y="5" rx="0.4"><title>2026-12-14</title></rect>
<rect fill="#e0e0e0" width="2" height="2" x="126" y="7.5" rx="0.4"><title>2026-12-15</title></rect>
<rect fill="#e0e0e0" width="2" height="2" x="126" y="10" rx="0.4"><title>2026-12-16</title></rect>
<rect fill="#e0e0e0" width="2" height="2" x="126" y="12.5" rx="0.4"><title>2026-12-17</title></rect>
<rect fill="#e0e0e0" width="2" height="2" x="126" y="15" rx="0.4"><title>2026-12-18</title></rect>
<rect fill="#e0e0e0" width="2" height="2" x="126" y="17.5" rx="0.4"><title>2026-12-19</title></rect>
<rect fill="#e0e0e0" width="2" height="2" x="126" y="20" rx="0.4"><title>2026-12-20</title></rect>
<rect fill="#e0e0e0" width="2" height="2" x="128.5" y="5" rx="0.4"><title>2026-12-21</title></rect>
<rect fill="#e0e0e0" width="2" height="2" x="128.5" y="7.5" rx="0.4"><title>2026-12-22</title></rect>
<rect fill="#e0e0e0" width="2" height="2" x="128.5" y="10" rx="0.4"><title>2026-12-23</title></rect>
<rect fill="#e0e0e0" width="2" height="2" x="128.5" y="12.5" rx="0.4"><title>2026-12-24</title></rect>
<rect fill="#e0e0e0" width="2" height="2" x="128.5" y="15" rx="0.4"><title>2026-12-25</title></rect>
<rect fill="#e0e0e0" width="2" height="2" x="128.5" y="17.5" rx="0.4"><title>2026-12-26</title></rect>
<rect fill="#e0e0e0" width="2" height="2" x="128.5" y="20" rx="0.4"><title>2026-12-27</title></rect>
<rect fill="#e0e0e0" width="2" height="2" x="131" y="5" rx="0.4"><title>2026-12-28</title></rect>
<rect fill="#e0e0e0" width="2" height="2" x="131" y="7.5" rx="0.4"><title>2026-12-29</title></rect>
<rect fill="#e0e0e0" width="2" height="2" x="131" y="10" rx="0.4"><title>2026-12-30</title></rect>
<rect fill="#e0e0e0" width="2" height="2" x="131" y="12.5" rx="0.4"><title>2026-12-31</title></rect>
</svg>